<?xml version="1.0" encoding="UTF-8" standalone="no"?>
<!DOCTYPE svg PUBLIC "-//W3C//DTD SVG 1.1//EN" "http://www.w3.org/Graphics/SVG/1.1/DTD/svg11.dtd">
<svg version="1.1" xmlns="http://www.w3.org/2000/svg" xmlns:xlink="http://www.w3.org/1999/xlink" preserveAspectRatio="xMidYMid meet" viewBox="0 0 640 640" width="640" height="640"><defs><path d="M122.06 453.74L177.65 397.43L233.95 453.02L178.37 509.33L122.06 453.74Z" id="e2ipJGKaLG"></path><path d="M177.65 397.43L235.55 338.78L291.85 394.37L233.95 453.02L177.65 397.43Z" id="a1yD2q44fI"></path><path d="M235.55 338.78L291.52 282.08L347.83 337.67L291.85 394.37L235.55 338.78Z" id="c3cJDQaL"></path><path d="M291.52 282.08L347.49 225.39L403.8 280.97L347.83 337.67L291.52 282.08Z" id="b2sZnWcp6Z"></path><path d="M347.49 225.39L403.08 169.08L459.38 224.67L403.8 280.97L347.49 225.39Z" id="byxNfzYW7"></path><path d="M403.08 169.08L459.43 111.99L515.74 167.58L459.38 224.67L403.08 169.08Z" id="bEQyP4vdt"></path></defs><g><g><g><use xlink:href="#e2ipJGKaLG" opacity="1" fill="#ff0000" fill-opacity="1"></use></g><g><use xlink:href="#a1yD2q44fI" opacity="1" fill="#ffd500" fill-opacity="1"></use></g><g><use xlink:href="#c3cJDQaL" opacity="1" fill="#00ff00" fill-opacity="1"></use></g><g><use xlink:href="#b2sZnWcp6Z" opacity="1" fill="#0069ff" fill-opacity="1"></use></g><g><use xlink:href="#byxNfzYW7" opacity="1" fill="#c900ff" fill-opacity="1"></use></g><g><use xlink:href="#bEQyP4vdt" opacity="1" fill="#ff0078" fill-opacity="1"></use></g></g></g></svg>