<?xml version="1.0" encoding="UTF-8" standalone="no"?>
<!DOCTYPE svg PUBLIC "-//W3C//DTD SVG 1.1//EN" "http://www.w3.org/Graphics/SVG/1.1/DTD/svg11.dtd">
<svg version="1.1" xmlns="http://www.w3.org/2000/svg" xmlns:xlink="http://www.w3.org/1999/xlink" preserveAspectRatio="xMidYMid meet" viewBox="0 0 640 640" width="640" height="640"><defs><path d="M97.47 166.7L526.04 166.7L526.04 504.07L97.47 504.07L97.47 166.7Z" id="aWF7DFQ6A"></path><path d="M111.76 182.09L155.71 182.09L155.71 489.78L111.76 489.78L111.76 182.09Z" id="e8zURuiBp"></path><path d="M155.71 182.09L197.47 182.09L197.47 489.78L155.71 489.78L155.71 182.09Z" id="a1pSGJqVnf"></path><path d="M197.47 182.09L241.43 182.09L241.43 489.78L197.47 489.78L197.47 182.09Z" id="a2ptu1fkg"></path><path d="M241.43 182.09L284.29 182.09L284.29 489.78L241.43 489.78L241.43 182.09Z" id="a2qrz6LF"></path><path d="M284.29 182.09L326.04 182.09L326.04 489.78L284.29 489.78L284.29 182.09Z" id="a2HfgR2hE"></path><path d="M326.04 182.09L366.7 182.09L366.7 489.78L326.04 489.78L326.04 182.09Z" id="ahDBFNCgl"></path><path d="M366.7 182.09L411.76 182.09L411.76 489.78L366.7 489.78L366.7 182.09Z" id="a3UqFERON"></path><path d="M405.16 182.09L448.02 182.09L448.02 489.78L405.16 489.78L405.16 182.09Z" id="e8sAjzc9Mv"></path><path d="M442.53 182.09L489.78 182.09L489.78 489.78L442.53 489.78L442.53 182.09Z" id="ddDzG2uQ2"></path><path d="M482.09 182.09L511.76 182.09L511.76 489.78L482.09 489.78L482.09 182.09Z" id="a1lFqjmT4G"></path></defs><g><g><g><g><use xlink:href="#aWF7DFQ6A" opacity="1" fill-opacity="0" stroke="#000000" stroke-width="30" stroke-opacity="1"></use></g></g><g><use xlink:href="#e8zURuiBp" opacity="1" fill="#ff004b" fill-opacity="1"></use></g><g><use xlink:href="#a1pSGJqVnf" opacity="1" fill="#ff0000" fill-opacity="1"></use></g><g><use xlink:href="#a2ptu1fkg" opacity="1" fill="#ff6000" fill-opacity="1"></use></g><g><use xlink:href="#a2qrz6LF" opacity="1" fill="#ffde00" fill-opacity="1"></use></g><g><use xlink:href="#a2HfgR2hE" opacity="1" fill="#87ff00" fill-opacity="1"></use></g><g><use xlink:href="#ahDBFNCgl" opacity="1" fill="#00ff00" fill-opacity="1"></use></g><g><use xlink:href="#a3UqFERON" opacity="1" fill="#00ffe1" fill-opacity="1"></use></g><g><use xlink:href="#e8sAjzc9Mv" opacity="1" fill="#004eff" fill-opacity="1"></use></g><g><use xlink:href="#ddDzG2uQ2" opacity="1" fill="#7800ff" fill-opacity="1"></use></g><g><use xlink:href="#a1lFqjmT4G" opacity="1" fill="#ff00ff" fill-opacity="1"></use></g></g></g></svg>